<svg width="96" height="96" viewBox="0 0 96 96" fill="none" xmlns="http://www.w3.org/2000/svg">
<rect width="96" height="96" rx="6" fill="#FFFF7F"/>
<path d="M60.6509 43.3693H56.2191C56.0487 42.4223 55.7314 41.589 55.2674 40.8693C54.8034 40.1496 54.2352 39.5388 53.5629 39.0369C52.8905 38.535 52.1377 38.1562 51.3043 37.9006C50.4805 37.6449 49.6045 37.517 48.6765 37.517C47.0004 37.517 45.4994 37.9384 44.1737 38.7812C42.8574 39.6241 41.8157 40.8598 41.0487 42.4886C40.2911 44.1174 39.9123 46.1061 39.9123 48.4545C39.9123 50.822 40.2911 52.8201 41.0487 54.4489C41.8157 56.0777 42.8621 57.3087 44.1879 58.142C45.5136 58.9754 47.0051 59.392 48.6623 59.392C49.5808 59.392 50.4521 59.2689 51.2759 59.0227C52.1093 58.767 52.8621 58.393 53.5344 57.9006C54.2068 57.4081 54.775 56.8068 55.239 56.0966C55.7125 55.3769 56.0392 54.553 56.2191 53.625L60.6509 53.6392C60.4142 55.0691 59.9549 56.3854 59.2731 57.5881C58.6007 58.7812 57.7343 59.8134 56.6737 60.6847C55.6225 61.5464 54.4199 62.214 53.0657 62.6875C51.7115 63.161 50.2343 63.3977 48.6339 63.3977C46.1149 63.3977 43.8706 62.8011 41.9009 61.608C39.9312 60.4053 38.3782 58.6866 37.2418 56.4517C36.1149 54.2169 35.5515 51.5511 35.5515 48.4545C35.5515 45.3485 36.1197 42.6828 37.256 40.4574C38.3924 38.2225 39.9454 36.5085 41.9151 35.3153C43.8848 34.1127 46.1244 33.5114 48.6339 33.5114C50.1774 33.5114 51.6168 33.7339 52.9521 34.179C54.2968 34.6146 55.5041 35.2585 56.5742 36.1108C57.6443 36.9536 58.5297 37.9858 59.2305 39.2074C59.9312 40.4195 60.4047 41.8068 60.6509 43.3693Z" fill="black" fill-opacity="0.8"/>
</svg>
