<svg width="96" height="96" viewBox="0 0 96 96" fill="none" xmlns="http://www.w3.org/2000/svg">
<rect width="96" height="96" rx="6" fill="#FFDF7F"/>
<path d="M38.1101 63V33.9091H48.7635C50.8279 33.9091 52.5372 34.25 53.8913 34.9318C55.2455 35.6042 56.2588 36.518 56.9311 37.6733C57.6035 38.8191 57.9396 40.1117 57.9396 41.5511C57.9396 42.7633 57.7171 43.786 57.272 44.6193C56.8269 45.4432 56.2304 46.1061 55.4822 46.608C54.7436 47.1004 53.9292 47.4602 53.0391 47.6875V47.9716C54.005 48.0189 54.9472 48.3314 55.8658 48.9091C56.7938 49.4773 57.5608 50.2869 58.1669 51.3381C58.773 52.3892 59.076 53.6676 59.076 55.1733C59.076 56.66 58.7256 57.9953 58.0249 59.179C57.3336 60.3532 56.2635 61.286 54.8146 61.9773C53.3658 62.6591 51.5144 63 49.2607 63H38.1101ZM42.4993 59.2358H48.8345C50.9368 59.2358 52.4425 58.8286 53.3516 58.0142C54.2607 57.1998 54.7152 56.1818 54.7152 54.9602C54.7152 54.0417 54.4832 53.1989 54.0192 52.4318C53.5552 51.6648 52.8923 51.054 52.0305 50.5994C51.1783 50.1449 50.165 49.9176 48.9908 49.9176H42.4993V59.2358ZM42.4993 46.4943H48.38C49.3648 46.4943 50.2502 46.3049 51.0362 45.9261C51.8317 45.5473 52.4614 45.017 52.9254 44.3352C53.3989 43.6439 53.6357 42.8295 53.6357 41.892C53.6357 40.6894 53.2143 39.6809 52.3714 38.8665C51.5286 38.0521 50.236 37.6449 48.4936 37.6449H42.4993V46.4943Z" fill="black" fill-opacity="0.8"/>
</svg>
