<svg width="96" height="96" viewBox="0 0 96 96" fill="none" xmlns="http://www.w3.org/2000/svg">
<rect width="96" height="96" rx="6" fill="#FF7F7F"/>
<path d="M54.1914 41.5511C54.0399 40.2064 53.4149 39.1648 52.3164 38.4261C51.2179 37.678 49.8353 37.304 48.1687 37.304C46.9755 37.304 45.9433 37.4934 45.0721 37.8722C44.2009 38.2415 43.5238 38.7528 43.0408 39.4062C42.5674 40.0502 42.3306 40.7841 42.3306 41.608C42.3306 42.2992 42.4916 42.8958 42.8136 43.3977C43.145 43.8996 43.5759 44.321 44.1062 44.6619C44.646 44.9934 45.2236 45.2727 45.8391 45.5C46.4547 45.7178 47.0465 45.8977 47.6147 46.0398L50.4556 46.7784C51.3836 47.0057 52.3353 47.3134 53.3107 47.7017C54.2861 48.09 55.1905 48.6013 56.0238 49.2358C56.8571 49.8703 57.5295 50.6562 58.0408 51.5938C58.5617 52.5312 58.8221 53.6534 58.8221 54.9602C58.8221 56.608 58.396 58.071 57.5437 59.3494C56.7009 60.6278 55.4746 61.6364 53.8647 62.375C52.2643 63.1136 50.3278 63.483 48.055 63.483C45.877 63.483 43.9925 63.1373 42.4016 62.446C40.8107 61.7547 39.5655 60.7746 38.6658 59.5057C37.7662 58.2273 37.2691 56.7121 37.1744 54.9602H41.5778C41.663 56.0114 42.0039 56.8873 42.6005 57.5881C43.2066 58.2794 43.9783 58.7955 44.9158 59.1364C45.8628 59.4678 46.8997 59.6335 48.0266 59.6335C49.2672 59.6335 50.3704 59.4394 51.3363 59.0511C52.3117 58.6534 53.0787 58.1042 53.6374 57.4034C54.1961 56.6932 54.4755 55.8646 54.4755 54.9176C54.4755 54.0559 54.2293 53.3504 53.7369 52.8011C53.2539 52.2519 52.5958 51.7973 51.7624 51.4375C50.9386 51.0777 50.0058 50.7604 48.9641 50.4858L45.5266 49.5483C43.1971 48.9138 41.3505 47.9811 39.9869 46.75C38.6327 45.5189 37.9556 43.8902 37.9556 41.8636C37.9556 40.1875 38.4102 38.7244 39.3192 37.4744C40.2283 36.2244 41.4594 35.2538 43.0124 34.5625C44.5655 33.8617 46.3174 33.5114 48.2681 33.5114C50.2378 33.5114 51.9755 33.857 53.4812 34.5483C54.9963 35.2396 56.1895 36.1913 57.0607 37.4034C57.9319 38.6061 58.3865 39.9886 58.4244 41.5511H54.1914Z" fill="black" fill-opacity="0.8"/>
</svg>
